<mxfile host="app.diagrams.net" modified="2024-03-27T01:49:11.763Z" agent="Mozilla/5.0 (Macintosh; Intel Mac OS X 10_15_7) AppleWebKit/537.36 (KHTML, like Gecko) Chrome/123.0.0.0 Safari/537.36" etag="o0tctCBJTwmY7P8hPukE" version="24.0.7" type="github" pages="4">
  <diagram name="Delete automatically" id="hhL_TZgKpQ0GGYLbjfJI">
    <mxGraphModel dx="1434" dy="734" grid="1" gridSize="10" guides="1" tooltips="1" connect="1" arrows="1" fold="1" page="1" pageScale="1" pageWidth="827" pageHeight="1169" math="0" shadow="0">
      <root>
        <mxCell id="0" />
        <mxCell id="1" parent="0" />
        <mxCell id="HGWIUg0tq1d76n8q_Acc-24" value="" style="sketch=0;outlineConnect=0;fontColor=#232F3E;gradientColor=none;fillColor=#232F3D;strokeColor=none;dashed=0;verticalLabelPosition=bottom;verticalAlign=top;align=center;html=1;fontSize=12;fontStyle=0;aspect=fixed;pointerEvents=1;shape=mxgraph.aws4.mobile_client;" parent="1" vertex="1">
          <mxGeometry x="20" y="155" width="94.62" height="180" as="geometry" />
        </mxCell>
        <mxCell id="HGWIUg0tq1d76n8q_Acc-1" value="Nakama Cloud" style="rounded=0;whiteSpace=wrap;html=1;verticalAlign=top;" parent="1" vertex="1">
          <mxGeometry x="280" y="50" width="480" height="360" as="geometry" />
        </mxCell>
        <mxCell id="HGWIUg0tq1d76n8q_Acc-11" style="edgeStyle=orthogonalEdgeStyle;rounded=0;orthogonalLoop=1;jettySize=auto;html=1;exitX=1;exitY=0.5;exitDx=0;exitDy=0;entryX=0;entryY=0.5;entryDx=0;entryDy=0;" parent="1" source="HGWIUg0tq1d76n8q_Acc-4" target="HGWIUg0tq1d76n8q_Acc-1" edge="1">
          <mxGeometry relative="1" as="geometry" />
        </mxCell>
        <mxCell id="HGWIUg0tq1d76n8q_Acc-12" value="1. Call WriteObjects API&lt;br&gt;(savedata, main)" style="edgeLabel;html=1;align=center;verticalAlign=middle;resizable=0;points=[];" parent="HGWIUg0tq1d76n8q_Acc-11" vertex="1" connectable="0">
          <mxGeometry x="-0.0254" y="3" relative="1" as="geometry">
            <mxPoint x="9" y="1" as="offset" />
          </mxGeometry>
        </mxCell>
        <mxCell id="HGWIUg0tq1d76n8q_Acc-4" value="Game client" style="image;aspect=fixed;perimeter=ellipsePerimeter;html=1;align=center;shadow=0;dashed=0;fontColor=#4277BB;labelBackgroundColor=default;fontSize=12;spacingTop=3;image=img/lib/ibm/applications/mobile_app.svg;" parent="1" vertex="1">
          <mxGeometry x="37.31000000000002" y="200" width="60" height="60" as="geometry" />
        </mxCell>
        <mxCell id="HGWIUg0tq1d76n8q_Acc-15" value="Postgres Database" style="shape=cylinder3;whiteSpace=wrap;html=1;boundedLbl=1;backgroundOutline=1;size=15;" parent="1" vertex="1">
          <mxGeometry x="530" y="220" width="60" height="80" as="geometry" />
        </mxCell>
        <mxCell id="HGWIUg0tq1d76n8q_Acc-18" value="" style="endArrow=none;dashed=1;html=1;dashPattern=1 3;strokeWidth=2;rounded=0;entryX=0;entryY=0.5;entryDx=0;entryDy=0;exitX=1;exitY=0;exitDx=0;exitDy=27.5;exitPerimeter=0;" parent="1" source="HGWIUg0tq1d76n8q_Acc-15" target="HGWIUg0tq1d76n8q_Acc-34" edge="1">
          <mxGeometry width="50" height="50" relative="1" as="geometry">
            <mxPoint x="288.31" y="360" as="sourcePoint" />
            <mxPoint x="600" y="225" as="targetPoint" />
          </mxGeometry>
        </mxCell>
        <mxCell id="HGWIUg0tq1d76n8q_Acc-27" value="Node 1" style="rounded=0;whiteSpace=wrap;html=1;verticalAlign=top;" parent="1" vertex="1">
          <mxGeometry x="320" y="110" width="120" height="235" as="geometry" />
        </mxCell>
        <mxCell id="HGWIUg0tq1d76n8q_Acc-21" style="edgeStyle=orthogonalEdgeStyle;rounded=0;orthogonalLoop=1;jettySize=auto;html=1;entryX=0.5;entryY=1;entryDx=0;entryDy=0;entryPerimeter=0;exitX=0.5;exitY=1;exitDx=0;exitDy=0;" parent="1" source="HGWIUg0tq1d76n8q_Acc-27" target="HGWIUg0tq1d76n8q_Acc-15" edge="1">
          <mxGeometry relative="1" as="geometry">
            <mxPoint x="440" y="350" as="sourcePoint" />
            <Array as="points" />
          </mxGeometry>
        </mxCell>
        <mxCell id="HGWIUg0tq1d76n8q_Acc-22" value="2. Update storage" style="edgeLabel;html=1;align=center;verticalAlign=middle;resizable=0;points=[];" parent="HGWIUg0tq1d76n8q_Acc-21" vertex="1" connectable="0">
          <mxGeometry y="3" relative="1" as="geometry">
            <mxPoint x="-18" y="18" as="offset" />
          </mxGeometry>
        </mxCell>
        <mxCell id="HGWIUg0tq1d76n8q_Acc-34" value="Storage&lt;br style=&quot;border-color: var(--border-color);&quot;&gt;&lt;br style=&quot;border-color: var(--border-color);&quot;&gt;(savedata, main,&amp;nbsp;&lt;b style=&quot;border-color: var(--border-color);&quot;&gt;update_time&lt;/b&gt;)" style="shape=dataStorage;whiteSpace=wrap;html=1;fixedSize=1;" parent="1" vertex="1">
          <mxGeometry x="630" y="155" width="100" height="80" as="geometry" />
        </mxCell>
        <mxCell id="HGWIUg0tq1d76n8q_Acc-35" value="users, leaderboard,&lt;br&gt;contest,&lt;br&gt;ootd&lt;br&gt;" style="shape=dataStorage;whiteSpace=wrap;html=1;fixedSize=1;" parent="1" vertex="1">
          <mxGeometry x="630" y="280" width="100" height="80" as="geometry" />
        </mxCell>
        <mxCell id="QBnk1ufEuOahwjNCqXOs-1" value="" style="endArrow=none;dashed=1;html=1;dashPattern=1 3;strokeWidth=2;rounded=0;entryX=0;entryY=0.5;entryDx=0;entryDy=0;exitX=1;exitY=0;exitDx=0;exitDy=52.5;exitPerimeter=0;" parent="1" source="HGWIUg0tq1d76n8q_Acc-15" target="HGWIUg0tq1d76n8q_Acc-35" edge="1">
          <mxGeometry width="50" height="50" relative="1" as="geometry">
            <mxPoint x="570" y="235" as="sourcePoint" />
            <mxPoint x="640" y="155" as="targetPoint" />
          </mxGeometry>
        </mxCell>
        <mxCell id="uckFuHtQ9TXDzUDy4J8K-2" value="Delete inactive users job" style="rounded=0;whiteSpace=wrap;html=1;" parent="1" vertex="1">
          <mxGeometry x="335" y="289" width="90" height="40" as="geometry" />
        </mxCell>
        <mxCell id="uckFuHtQ9TXDzUDy4J8K-3" value="Find inactive users job" style="rounded=0;whiteSpace=wrap;html=1;" parent="1" vertex="1">
          <mxGeometry x="337" y="210" width="90" height="40" as="geometry" />
        </mxCell>
        <mxCell id="HGWIUg0tq1d76n8q_Acc-31" style="rounded=0;orthogonalLoop=1;jettySize=auto;html=1;entryX=0;entryY=0;entryDx=0;entryDy=27.5;entryPerimeter=0;exitX=1;exitY=0.5;exitDx=0;exitDy=0;" parent="1" source="uckFuHtQ9TXDzUDy4J8K-3" target="HGWIUg0tq1d76n8q_Acc-15" edge="1">
          <mxGeometry relative="1" as="geometry">
            <mxPoint x="414" y="170" as="sourcePoint" />
            <mxPoint x="544" y="185" as="targetPoint" />
          </mxGeometry>
        </mxCell>
        <mxCell id="HGWIUg0tq1d76n8q_Acc-32" value="4.Find inactive users" style="edgeLabel;html=1;align=center;verticalAlign=middle;resizable=0;points=[];" parent="HGWIUg0tq1d76n8q_Acc-31" vertex="1" connectable="0">
          <mxGeometry x="0.0621" y="-4" relative="1" as="geometry">
            <mxPoint y="-29" as="offset" />
          </mxGeometry>
        </mxCell>
        <mxCell id="uckFuHtQ9TXDzUDy4J8K-4" style="rounded=0;orthogonalLoop=1;jettySize=auto;html=1;entryX=0;entryY=1;entryDx=0;entryDy=-15;entryPerimeter=0;exitX=1;exitY=0.5;exitDx=0;exitDy=0;" parent="1" source="uckFuHtQ9TXDzUDy4J8K-2" target="HGWIUg0tq1d76n8q_Acc-15" edge="1">
          <mxGeometry relative="1" as="geometry">
            <mxPoint x="435" y="230" as="sourcePoint" />
            <mxPoint x="540" y="258" as="targetPoint" />
          </mxGeometry>
        </mxCell>
        <mxCell id="uckFuHtQ9TXDzUDy4J8K-5" value="5.Delete inactive users" style="edgeLabel;html=1;align=center;verticalAlign=middle;resizable=0;points=[];" parent="uckFuHtQ9TXDzUDy4J8K-4" vertex="1" connectable="0">
          <mxGeometry x="0.0621" y="-4" relative="1" as="geometry">
            <mxPoint x="-21" y="-20" as="offset" />
          </mxGeometry>
        </mxCell>
        <mxCell id="uckFuHtQ9TXDzUDy4J8K-6" value="Login Hook" style="rounded=0;whiteSpace=wrap;html=1;" parent="1" vertex="1">
          <mxGeometry x="337" y="140" width="86" height="40" as="geometry" />
        </mxCell>
        <mxCell id="uckFuHtQ9TXDzUDy4J8K-7" style="edgeStyle=orthogonalEdgeStyle;rounded=0;orthogonalLoop=1;jettySize=auto;html=1;exitX=1;exitY=0.5;exitDx=0;exitDy=0;entryX=0.5;entryY=0;entryDx=0;entryDy=0;entryPerimeter=0;" parent="1" source="uckFuHtQ9TXDzUDy4J8K-6" target="HGWIUg0tq1d76n8q_Acc-15" edge="1">
          <mxGeometry relative="1" as="geometry" />
        </mxCell>
        <mxCell id="uckFuHtQ9TXDzUDy4J8K-8" value="3. Save login_time" style="edgeLabel;html=1;align=center;verticalAlign=middle;resizable=0;points=[];" parent="uckFuHtQ9TXDzUDy4J8K-7" vertex="1" connectable="0">
          <mxGeometry x="-0.0333" relative="1" as="geometry">
            <mxPoint as="offset" />
          </mxGeometry>
        </mxCell>
      </root>
    </mxGraphModel>
  </diagram>
  <diagram name="Delete manually" id="ZTglEnTNiRPboWz-02SK">
    <mxGraphModel dx="1434" dy="734" grid="1" gridSize="10" guides="1" tooltips="1" connect="1" arrows="1" fold="1" page="1" pageScale="1" pageWidth="827" pageHeight="1169" math="0" shadow="0">
      <root>
        <mxCell id="GM9g59Rhw9RuwJUiP0Pc-0" />
        <mxCell id="GM9g59Rhw9RuwJUiP0Pc-1" parent="GM9g59Rhw9RuwJUiP0Pc-0" />
        <mxCell id="GM9g59Rhw9RuwJUiP0Pc-9" value="Nakama" style="rounded=0;whiteSpace=wrap;html=1;verticalAlign=top;" parent="GM9g59Rhw9RuwJUiP0Pc-1" vertex="1">
          <mxGeometry x="330" y="180" width="460" height="400" as="geometry" />
        </mxCell>
        <mxCell id="GM9g59Rhw9RuwJUiP0Pc-7" value="Postgres Database" style="shape=cylinder3;whiteSpace=wrap;html=1;boundedLbl=1;backgroundOutline=1;size=15;" parent="GM9g59Rhw9RuwJUiP0Pc-1" vertex="1">
          <mxGeometry x="571" y="400" width="60" height="80" as="geometry" />
        </mxCell>
        <mxCell id="GM9g59Rhw9RuwJUiP0Pc-8" value="" style="endArrow=none;dashed=1;html=1;dashPattern=1 3;strokeWidth=2;rounded=0;entryX=0;entryY=0.5;entryDx=0;entryDy=0;exitX=1;exitY=0;exitDx=0;exitDy=27.5;exitPerimeter=0;" parent="GM9g59Rhw9RuwJUiP0Pc-1" source="GM9g59Rhw9RuwJUiP0Pc-7" target="GM9g59Rhw9RuwJUiP0Pc-12" edge="1">
          <mxGeometry width="50" height="50" relative="1" as="geometry">
            <mxPoint x="329.31" y="540" as="sourcePoint" />
            <mxPoint x="641" y="405" as="targetPoint" />
          </mxGeometry>
        </mxCell>
        <mxCell id="GM9g59Rhw9RuwJUiP0Pc-12" value="Storage&lt;br style=&quot;border-color: var(--border-color);&quot;&gt;&lt;br style=&quot;border-color: var(--border-color);&quot;&gt;(savedata, main,&amp;nbsp;&lt;b style=&quot;border-color: var(--border-color);&quot;&gt;update_time&lt;/b&gt;)" style="shape=dataStorage;whiteSpace=wrap;html=1;fixedSize=1;" parent="GM9g59Rhw9RuwJUiP0Pc-1" vertex="1">
          <mxGeometry x="671" y="328" width="100" height="80" as="geometry" />
        </mxCell>
        <mxCell id="GM9g59Rhw9RuwJUiP0Pc-13" value="users, leaderboard,&lt;br&gt;contest,&lt;br&gt;ootd&lt;br&gt;" style="shape=dataStorage;whiteSpace=wrap;html=1;fixedSize=1;" parent="GM9g59Rhw9RuwJUiP0Pc-1" vertex="1">
          <mxGeometry x="671" y="450" width="100" height="80" as="geometry" />
        </mxCell>
        <mxCell id="GM9g59Rhw9RuwJUiP0Pc-14" value="" style="endArrow=none;dashed=1;html=1;dashPattern=1 3;strokeWidth=2;rounded=0;entryX=0;entryY=0.5;entryDx=0;entryDy=0;exitX=1;exitY=0;exitDx=0;exitDy=52.5;exitPerimeter=0;" parent="GM9g59Rhw9RuwJUiP0Pc-1" source="GM9g59Rhw9RuwJUiP0Pc-7" target="GM9g59Rhw9RuwJUiP0Pc-13" edge="1">
          <mxGeometry width="50" height="50" relative="1" as="geometry">
            <mxPoint x="611" y="415" as="sourcePoint" />
            <mxPoint x="681" y="335" as="targetPoint" />
          </mxGeometry>
        </mxCell>
        <mxCell id="YNqy-dXRtlxS0iX2qxZw-12" style="edgeStyle=orthogonalEdgeStyle;rounded=0;orthogonalLoop=1;jettySize=auto;html=1;exitX=0.5;exitY=0;exitDx=0;exitDy=0;entryX=1;entryY=0.5;entryDx=0;entryDy=0;dashed=1;" parent="GM9g59Rhw9RuwJUiP0Pc-1" source="GM9g59Rhw9RuwJUiP0Pc-16" target="YNqy-dXRtlxS0iX2qxZw-11" edge="1">
          <mxGeometry relative="1" as="geometry">
            <Array as="points">
              <mxPoint x="418" y="450" />
            </Array>
          </mxGeometry>
        </mxCell>
        <mxCell id="YNqy-dXRtlxS0iX2qxZw-13" value="1.b.Write inactive users" style="edgeLabel;html=1;align=center;verticalAlign=middle;resizable=0;points=[];" parent="YNqy-dXRtlxS0iX2qxZw-12" vertex="1" connectable="0">
          <mxGeometry x="0.1018" y="1" relative="1" as="geometry">
            <mxPoint x="-12" y="3" as="offset" />
          </mxGeometry>
        </mxCell>
        <mxCell id="GM9g59Rhw9RuwJUiP0Pc-16" value="Export inactive user RPC" style="rounded=0;whiteSpace=wrap;html=1;" parent="GM9g59Rhw9RuwJUiP0Pc-1" vertex="1">
          <mxGeometry x="373" y="480" width="90" height="40" as="geometry" />
        </mxCell>
        <mxCell id="GM9g59Rhw9RuwJUiP0Pc-17" style="rounded=0;orthogonalLoop=1;jettySize=auto;html=1;entryX=0.5;entryY=1;entryDx=0;entryDy=0;entryPerimeter=0;exitX=1;exitY=0.5;exitDx=0;exitDy=0;edgeStyle=orthogonalEdgeStyle;" parent="GM9g59Rhw9RuwJUiP0Pc-1" source="GM9g59Rhw9RuwJUiP0Pc-16" target="GM9g59Rhw9RuwJUiP0Pc-7" edge="1">
          <mxGeometry relative="1" as="geometry">
            <mxPoint x="455" y="350" as="sourcePoint" />
            <mxPoint x="585" y="365" as="targetPoint" />
            <Array as="points">
              <mxPoint x="601" y="500" />
            </Array>
          </mxGeometry>
        </mxCell>
        <mxCell id="GM9g59Rhw9RuwJUiP0Pc-18" value="1.a. Query inactive users" style="edgeLabel;html=1;align=center;verticalAlign=middle;resizable=0;points=[];" parent="GM9g59Rhw9RuwJUiP0Pc-17" vertex="1" connectable="0">
          <mxGeometry x="0.0621" y="-4" relative="1" as="geometry">
            <mxPoint x="-6" y="-4" as="offset" />
          </mxGeometry>
        </mxCell>
        <mxCell id="8m-NJmn6-bi0uEhqBZd7-4" value="Delete users RPC" style="rounded=0;whiteSpace=wrap;html=1;" parent="GM9g59Rhw9RuwJUiP0Pc-1" vertex="1">
          <mxGeometry x="380" y="220" width="90" height="40" as="geometry" />
        </mxCell>
        <mxCell id="YNqy-dXRtlxS0iX2qxZw-4" style="edgeStyle=orthogonalEdgeStyle;rounded=0;orthogonalLoop=1;jettySize=auto;html=1;exitX=1;exitY=0.5;exitDx=0;exitDy=0;entryX=0.5;entryY=0;entryDx=0;entryDy=0;entryPerimeter=0;" parent="GM9g59Rhw9RuwJUiP0Pc-1" source="8m-NJmn6-bi0uEhqBZd7-4" target="GM9g59Rhw9RuwJUiP0Pc-7" edge="1">
          <mxGeometry relative="1" as="geometry" />
        </mxCell>
        <mxCell id="YNqy-dXRtlxS0iX2qxZw-5" value="4.a. Delete users from DB" style="edgeLabel;html=1;align=center;verticalAlign=middle;resizable=0;points=[];" parent="YNqy-dXRtlxS0iX2qxZw-4" vertex="1" connectable="0">
          <mxGeometry x="-0.4667" relative="1" as="geometry">
            <mxPoint x="23" y="-10" as="offset" />
          </mxGeometry>
        </mxCell>
        <mxCell id="YNqy-dXRtlxS0iX2qxZw-7" style="edgeStyle=orthogonalEdgeStyle;rounded=0;orthogonalLoop=1;jettySize=auto;html=1;exitX=1;exitY=0.5;exitDx=0;exitDy=0;entryX=0.5;entryY=1;entryDx=0;entryDy=0;" parent="GM9g59Rhw9RuwJUiP0Pc-1" source="YNqy-dXRtlxS0iX2qxZw-6" target="GM9g59Rhw9RuwJUiP0Pc-16" edge="1">
          <mxGeometry relative="1" as="geometry">
            <Array as="points">
              <mxPoint x="190" y="550" />
              <mxPoint x="418" y="550" />
            </Array>
          </mxGeometry>
        </mxCell>
        <mxCell id="YNqy-dXRtlxS0iX2qxZw-8" value="1.Export inactive user ids" style="edgeLabel;html=1;align=center;verticalAlign=middle;resizable=0;points=[];" parent="YNqy-dXRtlxS0iX2qxZw-7" vertex="1" connectable="0">
          <mxGeometry x="-0.2761" y="-1" relative="1" as="geometry">
            <mxPoint x="10" y="-11" as="offset" />
          </mxGeometry>
        </mxCell>
        <mxCell id="YNqy-dXRtlxS0iX2qxZw-9" style="edgeStyle=orthogonalEdgeStyle;rounded=0;orthogonalLoop=1;jettySize=auto;html=1;exitX=1;exitY=0.5;exitDx=0;exitDy=0;entryX=0;entryY=0.5;entryDx=0;entryDy=0;exitPerimeter=0;" parent="GM9g59Rhw9RuwJUiP0Pc-1" source="w0EcY5rJcMxAKFk-yMkE-1" target="8m-NJmn6-bi0uEhqBZd7-4" edge="1">
          <mxGeometry relative="1" as="geometry" />
        </mxCell>
        <mxCell id="YNqy-dXRtlxS0iX2qxZw-10" value="4.Delete selected users" style="edgeLabel;html=1;align=center;verticalAlign=middle;resizable=0;points=[];" parent="YNqy-dXRtlxS0iX2qxZw-9" vertex="1" connectable="0">
          <mxGeometry x="0.0631" relative="1" as="geometry">
            <mxPoint as="offset" />
          </mxGeometry>
        </mxCell>
        <mxCell id="YNqy-dXRtlxS0iX2qxZw-6" value="Postman" style="rounded=0;whiteSpace=wrap;html=1;" parent="GM9g59Rhw9RuwJUiP0Pc-1" vertex="1">
          <mxGeometry x="70" y="520" width="120" height="60" as="geometry" />
        </mxCell>
        <mxCell id="w0EcY5rJcMxAKFk-yMkE-3" style="edgeStyle=orthogonalEdgeStyle;rounded=0;orthogonalLoop=1;jettySize=auto;html=1;exitX=0.5;exitY=0;exitDx=0;exitDy=0;" edge="1" parent="GM9g59Rhw9RuwJUiP0Pc-1" source="YNqy-dXRtlxS0iX2qxZw-11" target="w0EcY5rJcMxAKFk-yMkE-2">
          <mxGeometry relative="1" as="geometry" />
        </mxCell>
        <mxCell id="w0EcY5rJcMxAKFk-yMkE-4" value="3.Export" style="edgeLabel;html=1;align=center;verticalAlign=middle;resizable=0;points=[];" vertex="1" connectable="0" parent="w0EcY5rJcMxAKFk-yMkE-3">
          <mxGeometry x="-0.1429" relative="1" as="geometry">
            <mxPoint as="offset" />
          </mxGeometry>
        </mxCell>
        <mxCell id="YNqy-dXRtlxS0iX2qxZw-11" value="Google Sheets" style="rounded=0;whiteSpace=wrap;html=1;" parent="GM9g59Rhw9RuwJUiP0Pc-1" vertex="1">
          <mxGeometry x="73.75" y="420" width="120" height="60" as="geometry" />
        </mxCell>
        <mxCell id="YNqy-dXRtlxS0iX2qxZw-14" value="2.Verify and select users to be deleted" style="text;html=1;strokeColor=none;fillColor=none;align=center;verticalAlign=middle;whiteSpace=wrap;rounded=0;" parent="GM9g59Rhw9RuwJUiP0Pc-1" vertex="1">
          <mxGeometry x="180" y="390" width="120" height="30" as="geometry" />
        </mxCell>
        <mxCell id="w0EcY5rJcMxAKFk-yMkE-1" value="Delete user scripts" style="verticalLabelPosition=bottom;html=1;verticalAlign=top;align=center;strokeColor=none;fillColor=#00BEF2;shape=mxgraph.azure.script_file;pointerEvents=1;" vertex="1" parent="GM9g59Rhw9RuwJUiP0Pc-1">
          <mxGeometry x="110" y="215" width="47.5" height="50" as="geometry" />
        </mxCell>
        <mxCell id="w0EcY5rJcMxAKFk-yMkE-2" value="CSV files" style="sketch=0;pointerEvents=1;shadow=0;dashed=0;html=1;strokeColor=none;fillColor=#505050;labelPosition=center;verticalLabelPosition=bottom;verticalAlign=top;outlineConnect=0;align=center;shape=mxgraph.office.users.csv_file;" vertex="1" parent="GM9g59Rhw9RuwJUiP0Pc-1">
          <mxGeometry x="104.25" y="320" width="59" height="43" as="geometry" />
        </mxCell>
        <mxCell id="w0EcY5rJcMxAKFk-yMkE-5" style="edgeStyle=orthogonalEdgeStyle;rounded=0;orthogonalLoop=1;jettySize=auto;html=1;entryX=0.5;entryY=1;entryDx=0;entryDy=0;entryPerimeter=0;" edge="1" parent="GM9g59Rhw9RuwJUiP0Pc-1" source="w0EcY5rJcMxAKFk-yMkE-2" target="w0EcY5rJcMxAKFk-yMkE-1">
          <mxGeometry relative="1" as="geometry" />
        </mxCell>
      </root>
    </mxGraphModel>
  </diagram>
  <diagram name="Delete manually 的副本" id="Gh_eIIbLJFfqNDTix-kt">
    <mxGraphModel dx="1434" dy="734" grid="1" gridSize="10" guides="1" tooltips="1" connect="1" arrows="1" fold="1" page="1" pageScale="1" pageWidth="827" pageHeight="1169" math="0" shadow="0">
      <root>
        <mxCell id="zO2C4XFcVPTfNPBZEEYH-0" />
        <mxCell id="zO2C4XFcVPTfNPBZEEYH-1" parent="zO2C4XFcVPTfNPBZEEYH-0" />
        <mxCell id="zO2C4XFcVPTfNPBZEEYH-2" value="Nakama" style="rounded=0;whiteSpace=wrap;html=1;verticalAlign=top;" vertex="1" parent="zO2C4XFcVPTfNPBZEEYH-1">
          <mxGeometry x="330" y="290" width="460" height="290" as="geometry" />
        </mxCell>
        <mxCell id="zO2C4XFcVPTfNPBZEEYH-3" value="Postgres Database" style="shape=cylinder3;whiteSpace=wrap;html=1;boundedLbl=1;backgroundOutline=1;size=15;" vertex="1" parent="zO2C4XFcVPTfNPBZEEYH-1">
          <mxGeometry x="571" y="400" width="60" height="80" as="geometry" />
        </mxCell>
        <mxCell id="zO2C4XFcVPTfNPBZEEYH-4" value="" style="endArrow=none;dashed=1;html=1;dashPattern=1 3;strokeWidth=2;rounded=0;entryX=0;entryY=0.5;entryDx=0;entryDy=0;exitX=1;exitY=0;exitDx=0;exitDy=27.5;exitPerimeter=0;" edge="1" parent="zO2C4XFcVPTfNPBZEEYH-1" source="zO2C4XFcVPTfNPBZEEYH-3" target="zO2C4XFcVPTfNPBZEEYH-5">
          <mxGeometry width="50" height="50" relative="1" as="geometry">
            <mxPoint x="329.31" y="540" as="sourcePoint" />
            <mxPoint x="641" y="405" as="targetPoint" />
          </mxGeometry>
        </mxCell>
        <mxCell id="zO2C4XFcVPTfNPBZEEYH-5" value="Storage&lt;br style=&quot;border-color: var(--border-color);&quot;&gt;&lt;br style=&quot;border-color: var(--border-color);&quot;&gt;(savedata, main,&amp;nbsp;&lt;b style=&quot;border-color: var(--border-color);&quot;&gt;update_time&lt;/b&gt;)" style="shape=dataStorage;whiteSpace=wrap;html=1;fixedSize=1;" vertex="1" parent="zO2C4XFcVPTfNPBZEEYH-1">
          <mxGeometry x="671" y="328" width="100" height="80" as="geometry" />
        </mxCell>
        <mxCell id="zO2C4XFcVPTfNPBZEEYH-6" value="users, leaderboard,&lt;br&gt;contest,&lt;br&gt;ootd&lt;br&gt;" style="shape=dataStorage;whiteSpace=wrap;html=1;fixedSize=1;" vertex="1" parent="zO2C4XFcVPTfNPBZEEYH-1">
          <mxGeometry x="671" y="450" width="100" height="80" as="geometry" />
        </mxCell>
        <mxCell id="zO2C4XFcVPTfNPBZEEYH-7" value="" style="endArrow=none;dashed=1;html=1;dashPattern=1 3;strokeWidth=2;rounded=0;entryX=0;entryY=0.5;entryDx=0;entryDy=0;exitX=1;exitY=0;exitDx=0;exitDy=52.5;exitPerimeter=0;" edge="1" parent="zO2C4XFcVPTfNPBZEEYH-1" source="zO2C4XFcVPTfNPBZEEYH-3" target="zO2C4XFcVPTfNPBZEEYH-6">
          <mxGeometry width="50" height="50" relative="1" as="geometry">
            <mxPoint x="611" y="415" as="sourcePoint" />
            <mxPoint x="681" y="335" as="targetPoint" />
          </mxGeometry>
        </mxCell>
        <mxCell id="zO2C4XFcVPTfNPBZEEYH-8" style="edgeStyle=orthogonalEdgeStyle;rounded=0;orthogonalLoop=1;jettySize=auto;html=1;exitX=0;exitY=0.75;exitDx=0;exitDy=0;entryX=1;entryY=0.5;entryDx=0;entryDy=0;dashed=1;" edge="1" parent="zO2C4XFcVPTfNPBZEEYH-1" source="zO2C4XFcVPTfNPBZEEYH-10" target="zO2C4XFcVPTfNPBZEEYH-24">
          <mxGeometry relative="1" as="geometry">
            <Array as="points">
              <mxPoint x="270" y="438" />
              <mxPoint x="270" y="500" />
            </Array>
          </mxGeometry>
        </mxCell>
        <mxCell id="zO2C4XFcVPTfNPBZEEYH-9" value="1.b.Write inactive users" style="edgeLabel;html=1;align=center;verticalAlign=middle;resizable=0;points=[];" vertex="1" connectable="0" parent="zO2C4XFcVPTfNPBZEEYH-8">
          <mxGeometry x="0.1018" y="1" relative="1" as="geometry">
            <mxPoint x="-12" y="3" as="offset" />
          </mxGeometry>
        </mxCell>
        <mxCell id="zO2C4XFcVPTfNPBZEEYH-10" value="Export inactive user RPC" style="rounded=0;whiteSpace=wrap;html=1;" vertex="1" parent="zO2C4XFcVPTfNPBZEEYH-1">
          <mxGeometry x="373" y="408" width="90" height="40" as="geometry" />
        </mxCell>
        <mxCell id="zO2C4XFcVPTfNPBZEEYH-11" style="rounded=0;orthogonalLoop=1;jettySize=auto;html=1;entryX=0;entryY=0;entryDx=0;entryDy=27.5;entryPerimeter=0;exitX=1;exitY=0.5;exitDx=0;exitDy=0;edgeStyle=orthogonalEdgeStyle;" edge="1" parent="zO2C4XFcVPTfNPBZEEYH-1" source="zO2C4XFcVPTfNPBZEEYH-10" target="zO2C4XFcVPTfNPBZEEYH-3">
          <mxGeometry relative="1" as="geometry">
            <mxPoint x="455" y="350" as="sourcePoint" />
            <mxPoint x="585" y="365" as="targetPoint" />
          </mxGeometry>
        </mxCell>
        <mxCell id="zO2C4XFcVPTfNPBZEEYH-12" value="1.a. Query inactive users" style="edgeLabel;html=1;align=center;verticalAlign=middle;resizable=0;points=[];" vertex="1" connectable="0" parent="zO2C4XFcVPTfNPBZEEYH-11">
          <mxGeometry x="0.0621" y="-4" relative="1" as="geometry">
            <mxPoint y="-31" as="offset" />
          </mxGeometry>
        </mxCell>
        <mxCell id="zO2C4XFcVPTfNPBZEEYH-13" value="Login Hook" style="rounded=0;whiteSpace=wrap;html=1;" vertex="1" parent="zO2C4XFcVPTfNPBZEEYH-1">
          <mxGeometry x="375" y="500" width="86" height="40" as="geometry" />
        </mxCell>
        <mxCell id="zO2C4XFcVPTfNPBZEEYH-14" style="edgeStyle=orthogonalEdgeStyle;rounded=0;orthogonalLoop=1;jettySize=auto;html=1;exitX=1;exitY=0.5;exitDx=0;exitDy=0;entryX=0.5;entryY=1;entryDx=0;entryDy=0;entryPerimeter=0;" edge="1" parent="zO2C4XFcVPTfNPBZEEYH-1" source="zO2C4XFcVPTfNPBZEEYH-13" target="zO2C4XFcVPTfNPBZEEYH-3">
          <mxGeometry relative="1" as="geometry" />
        </mxCell>
        <mxCell id="zO2C4XFcVPTfNPBZEEYH-15" value="4.Save login_time" style="edgeLabel;html=1;align=center;verticalAlign=middle;resizable=0;points=[];" vertex="1" connectable="0" parent="zO2C4XFcVPTfNPBZEEYH-14">
          <mxGeometry x="-0.0333" relative="1" as="geometry">
            <mxPoint x="-18" as="offset" />
          </mxGeometry>
        </mxCell>
        <mxCell id="zO2C4XFcVPTfNPBZEEYH-16" value="Delete users RPC" style="rounded=0;whiteSpace=wrap;html=1;" vertex="1" parent="zO2C4XFcVPTfNPBZEEYH-1">
          <mxGeometry x="373" y="320" width="90" height="40" as="geometry" />
        </mxCell>
        <mxCell id="zO2C4XFcVPTfNPBZEEYH-17" style="edgeStyle=orthogonalEdgeStyle;rounded=0;orthogonalLoop=1;jettySize=auto;html=1;exitX=1;exitY=0.5;exitDx=0;exitDy=0;entryX=0.5;entryY=0;entryDx=0;entryDy=0;entryPerimeter=0;" edge="1" parent="zO2C4XFcVPTfNPBZEEYH-1" source="zO2C4XFcVPTfNPBZEEYH-16" target="zO2C4XFcVPTfNPBZEEYH-3">
          <mxGeometry relative="1" as="geometry" />
        </mxCell>
        <mxCell id="zO2C4XFcVPTfNPBZEEYH-18" value="3.a. Delete users from DB" style="edgeLabel;html=1;align=center;verticalAlign=middle;resizable=0;points=[];" vertex="1" connectable="0" parent="zO2C4XFcVPTfNPBZEEYH-17">
          <mxGeometry x="-0.4667" relative="1" as="geometry">
            <mxPoint x="23" y="-10" as="offset" />
          </mxGeometry>
        </mxCell>
        <mxCell id="zO2C4XFcVPTfNPBZEEYH-19" style="edgeStyle=orthogonalEdgeStyle;rounded=0;orthogonalLoop=1;jettySize=auto;html=1;exitX=1;exitY=0.75;exitDx=0;exitDy=0;entryX=0;entryY=0.5;entryDx=0;entryDy=0;" edge="1" parent="zO2C4XFcVPTfNPBZEEYH-1" source="zO2C4XFcVPTfNPBZEEYH-23" target="zO2C4XFcVPTfNPBZEEYH-10">
          <mxGeometry relative="1" as="geometry">
            <Array as="points">
              <mxPoint x="220" y="405" />
              <mxPoint x="220" y="400" />
              <mxPoint x="270" y="400" />
              <mxPoint x="270" y="428" />
            </Array>
          </mxGeometry>
        </mxCell>
        <mxCell id="zO2C4XFcVPTfNPBZEEYH-20" value="1.Export inactive user ids" style="edgeLabel;html=1;align=center;verticalAlign=middle;resizable=0;points=[];" vertex="1" connectable="0" parent="zO2C4XFcVPTfNPBZEEYH-19">
          <mxGeometry x="-0.2761" y="-1" relative="1" as="geometry">
            <mxPoint as="offset" />
          </mxGeometry>
        </mxCell>
        <mxCell id="zO2C4XFcVPTfNPBZEEYH-21" style="edgeStyle=orthogonalEdgeStyle;rounded=0;orthogonalLoop=1;jettySize=auto;html=1;exitX=1;exitY=0.25;exitDx=0;exitDy=0;entryX=0;entryY=0.5;entryDx=0;entryDy=0;" edge="1" parent="zO2C4XFcVPTfNPBZEEYH-1" source="zO2C4XFcVPTfNPBZEEYH-23" target="zO2C4XFcVPTfNPBZEEYH-16">
          <mxGeometry relative="1" as="geometry" />
        </mxCell>
        <mxCell id="zO2C4XFcVPTfNPBZEEYH-22" value="3.Delete selected users" style="edgeLabel;html=1;align=center;verticalAlign=middle;resizable=0;points=[];" vertex="1" connectable="0" parent="zO2C4XFcVPTfNPBZEEYH-21">
          <mxGeometry x="0.0631" relative="1" as="geometry">
            <mxPoint as="offset" />
          </mxGeometry>
        </mxCell>
        <mxCell id="zO2C4XFcVPTfNPBZEEYH-23" value="BE Dashboard" style="rounded=0;whiteSpace=wrap;html=1;" vertex="1" parent="zO2C4XFcVPTfNPBZEEYH-1">
          <mxGeometry x="60" y="360" width="120" height="60" as="geometry" />
        </mxCell>
        <mxCell id="zO2C4XFcVPTfNPBZEEYH-24" value="Google Sheets" style="rounded=0;whiteSpace=wrap;html=1;" vertex="1" parent="zO2C4XFcVPTfNPBZEEYH-1">
          <mxGeometry x="60" y="470" width="120" height="60" as="geometry" />
        </mxCell>
        <mxCell id="zO2C4XFcVPTfNPBZEEYH-25" value="2.Verify and select users to be deleted" style="text;html=1;strokeColor=none;fillColor=none;align=center;verticalAlign=middle;whiteSpace=wrap;rounded=0;" vertex="1" parent="zO2C4XFcVPTfNPBZEEYH-1">
          <mxGeometry x="60" y="540" width="120" height="30" as="geometry" />
        </mxCell>
      </root>
    </mxGraphModel>
  </diagram>
  <diagram id="E4FjHj9IYYF1XGPrTtGR" name="第 3 页">
    <mxGraphModel dx="1434" dy="734" grid="1" gridSize="10" guides="1" tooltips="1" connect="1" arrows="1" fold="1" page="1" pageScale="1" pageWidth="827" pageHeight="1169" math="0" shadow="0">
      <root>
        <mxCell id="0" />
        <mxCell id="1" parent="0" />
      </root>
    </mxGraphModel>
  </diagram>
</mxfile>
